<?xml version="1.0" encoding="utf-8"?>
<!-- Generator: Adobe Illustrator 23.0.2, SVG Export Plug-In . SVG Version: 6.00 Build 0)  -->
<svg version="1.1" id="Layer_1" xmlns="http://www.w3.org/2000/svg" xmlns:xlink="http://www.w3.org/1999/xlink" x="0px" y="0px"
	 viewBox="0 0 50 50" style="enable-background:new 0 0 50 50;" xml:space="preserve">
<style type="text/css">
	.st0{fill:#313591;}
	.st1{fill:#EC2027;}
</style>
<g>
	<path class="st0" d="M25,0.3C11.4,0.3,0.3,11.4,0.3,25S11.4,49.7,25,49.7S49.7,38.6,49.7,25S38.6,0.3,25,0.3z M25,48.9
		C11.8,48.9,1.1,38.2,1.1,25S11.8,1.1,25,1.1S48.9,11.8,48.9,25S38.2,48.9,25,48.9z"/>
</g>
<path class="st0" d="M44,26.9c0,3.3-1.7,6-3.9,6.4h0c-0.2,0.7-0.7,1.2-1.4,1.4c-0.2,0.1-0.4,0.1-0.7,0.1s-0.6,0-0.8-0.1
	c-0.9-0.3-1.5-1.1-1.5-2.1V21.2c0-0.9,0.6-1.8,1.4-2.1c0.2-0.1,0.5-0.2,0.8-0.2c0.2,0,0.5,0,0.7,0.1c0.7,0.2,1.3,0.8,1.5,1.5
	c0,0,0,0,0,0.1c0,0,0,0,0.1,0C42.4,20.9,44,23.6,44,26.9z"/>
<path class="st0" d="M38.7,20.4h-1.5c0-6.7-5.5-12.2-12.2-12.2s-12.2,5.5-12.2,12.2h-1.5c0-7.6,6.1-13.7,13.7-13.7
	S38.7,12.9,38.7,20.4z"/>
<path class="st0" d="M14.4,21.2v11.4c0,1.3-1,2.3-2.3,2.3c-0.9,0-1.8-0.6-2.1-1.5c-0.1,0-0.1,0-0.2,0C7.6,32.9,6,30.2,6,26.9
	c0-3.3,1.7-6,3.9-6.4c0.2-0.7,0.8-1.3,1.5-1.5c0.2-0.1,0.5-0.1,0.7-0.1c0.3,0,0.5,0.1,0.8,0.2C13.7,19.4,14.3,20.2,14.4,21.2z"/>
<path class="st0" d="M31.8,41h-3v-1.5h3c3.4,0,5.3-1.9,5.3-5.3h1.5C38.7,38.4,36.1,41,31.8,41z"/>
<path class="st1" d="M29.4,39.5c-0.3-0.9-1.2-1.5-2.2-1.5h-3.8c-1.3,0-2.3,1-2.3,2.3s1,2.3,2.3,2.3h3.8c1,0,1.8-0.6,2.2-1.5
	c0.1-0.2,0.1-0.5,0.1-0.8C29.6,40,29.5,39.7,29.4,39.5z"/>
</svg>
