<?xml version="1.0" encoding="utf-8"?>
<!-- Generator: Adobe Illustrator 23.0.1, SVG Export Plug-In . SVG Version: 6.00 Build 0)  -->
<svg version="1.1" id="Layer_1" xmlns="http://www.w3.org/2000/svg" xmlns:xlink="http://www.w3.org/1999/xlink" x="0px" y="0px"
	 viewBox="0 0 50 50" style="enable-background:new 0 0 50 50;" xml:space="preserve">
<style type="text/css">
	.st0{fill:#313591;}
	.st1{fill:#EC2027;}
</style>
<g>
	<path class="st0" d="M25,49.7C11.4,49.7,0.3,38.6,0.3,25S11.4,0.3,25,0.3S49.7,11.4,49.7,25S38.6,49.7,25,49.7z M25,1.1
		C11.8,1.1,1.1,11.8,1.1,25c0,13.2,10.7,23.9,23.9,23.9c13.2,0,23.9-10.7,23.9-23.9C48.9,11.8,38.2,1.1,25,1.1z"/>
</g>
<g>
	<g>
		<g>
			<path class="st0" d="M37.6,26.6H10.2c-2,0-3.6,1.6-3.6,3.6v2.9c0,2,1.6,3.6,3.6,3.6h27.4c2,0,3.6-1.6,3.6-3.6v-2.9
				C41.2,28.2,39.6,26.6,37.6,26.6z M40,33.2c0,1.3-1,2.4-2.2,2.4H10c-1.2,0-2.2-1.1-2.2-2.4v-3.1c0-1.3,1-2.4,2.2-2.4h27.8
				c1.2,0,2.2,1.1,2.2,2.4L40,33.2L40,33.2z"/>
		</g>
	</g>
	<g>
		<g>
			<path class="st0" d="M31.8,16.5c-0.4,0-0.7,0.3-0.7,0.7v9.4c0,0.4,0.3,0.7,0.7,0.7c0.4,0,0.7-0.3,0.7-0.7v-9.4
				C32.5,16.8,32.2,16.5,31.8,16.5z"/>
		</g>
	</g>
	<g>
		<g>
			<circle class="st0" cx="11.6" cy="31.6" r="0.7"/>
		</g>
	</g>
	<g>
		<g>
			<circle class="st0" cx="15.9" cy="31.6" r="0.7"/>
		</g>
	</g>
	<g>
		<g>
			<circle class="st0" cx="20.3" cy="31.6" r="0.7"/>
		</g>
	</g>
	<g>
		<g>
			<circle class="st0" cx="24.6" cy="31.6" r="0.7"/>
		</g>
	</g>
	<g>
		<g>
			<path class="st0" d="M36.1,30.9h-7.2c-0.4,0-0.7,0.3-0.7,0.7c0,0.4,0.3,0.7,0.7,0.7h7.2c0.4,0,0.7-0.3,0.7-0.7
				C36.9,31.2,36.5,30.9,36.1,30.9z"/>
		</g>
	</g>
	<g>
		<g>
			<path class="st1" d="M29.6,17.2c0-0.6,0.2-1.1,0.6-1.5c0.3-0.3,0.3-0.7,0-1c-0.3-0.3-0.7-0.3-1,0c-0.7,0.7-1.1,1.6-1.1,2.6
				c0,1,0.4,1.9,1.1,2.6c0.1,0.1,0.3,0.2,0.5,0.2c0.2,0,0.4-0.1,0.5-0.2c0.3-0.3,0.3-0.7,0-1C29.9,18.3,29.6,17.8,29.6,17.2z"/>
		</g>
	</g>
	<g>
		<g>
			<path class="st1" d="M34.4,14.7c-0.3-0.3-0.7-0.3-1,0c-0.3,0.3-0.3,0.7,0,1c0.4,0.4,0.6,1,0.6,1.5c0,0.6-0.2,1.1-0.6,1.5
				c-0.3,0.3-0.3,0.7,0,1c0.1,0.1,0.3,0.2,0.5,0.2c0.2,0,0.4-0.1,0.5-0.2c0.7-0.7,1.1-1.6,1.1-2.6C35.4,16.2,35,15.3,34.4,14.7z"/>
		</g>
	</g>
	<g>
		<g>
			<path class="st1" d="M28.2,13.6c0.3-0.3,0.3-0.7,0-1c-0.3-0.3-0.7-0.3-1,0c-2.5,2.5-2.5,6.7,0,9.2c0.1,0.1,0.3,0.2,0.5,0.2
				c0.2,0,0.4-0.1,0.5-0.2c0.3-0.3,0.3-0.7,0-1C26.3,18.8,26.3,15.6,28.2,13.6z"/>
		</g>
	</g>
	<g>
		<g>
			<path class="st1" d="M36.4,12.6c-0.3-0.3-0.7-0.3-1,0c-0.3,0.3-0.3,0.7,0,1c2,2,2,5.2,0,7.1c-0.3,0.3-0.3,0.7,0,1
				c0.1,0.1,0.3,0.2,0.5,0.2c0.2,0,0.4-0.1,0.5-0.2C38.9,19.3,38.9,15.1,36.4,12.6z"/>
		</g>
	</g>
	<g>
		<g>
			<path class="st1" d="M26.2,11.6c0.3-0.3,0.3-0.7,0-1s-0.7-0.3-1,0c-3.7,3.7-3.7,9.6,0,13.3c0.1,0.1,0.3,0.2,0.5,0.2
				c0.2,0,0.4-0.1,0.5-0.2c0.3-0.3,0.3-0.7,0-1C23.1,19.7,23.1,14.7,26.2,11.6z"/>
		</g>
	</g>
	<g>
		<g>
			<path class="st1" d="M38.4,10.6c-0.3-0.3-0.7-0.3-1,0c-0.3,0.3-0.3,0.7,0,1c3.1,3.1,3.1,8.1,0,11.2c-0.3,0.3-0.3,0.7,0,1
				c0.1,0.1,0.3,0.2,0.5,0.2c0.2,0,0.4-0.1,0.5-0.2C42.1,20.2,42.1,14.2,38.4,10.6z"/>
		</g>
	</g>
</g>
</svg>
