<?xml version="1.0" encoding="utf-8"?>
<!-- Generator: Adobe Illustrator 23.0.1, SVG Export Plug-In . SVG Version: 6.00 Build 0)  -->
<svg version="1.1" id="Layer_1" xmlns="http://www.w3.org/2000/svg" xmlns:xlink="http://www.w3.org/1999/xlink" x="0px" y="0px"
	 viewBox="0 0 50 50" style="enable-background:new 0 0 50 50;" xml:space="preserve">
<style type="text/css">
	.st0{fill:#313591;}
	.st1{fill:#EC2027;}
</style>
<g>
	<path class="st0" d="M25,0.3C11.4,0.3,0.3,11.4,0.3,25c0,13.6,11.1,24.7,24.7,24.7S49.7,38.6,49.7,25C49.7,11.4,38.6,0.3,25,0.3z
		 M25,48.9C11.8,48.9,1.1,38.2,1.1,25C1.1,11.8,11.8,1.1,25,1.1S48.9,11.8,48.9,25C48.9,38.2,38.2,48.9,25,48.9z"/>
</g>
<g>
	<g>
		<path class="st0" d="M21.1,31.2c-0.4-0.4-0.8-0.9-1.2-1.3c-0.3-0.3-0.6-0.7-1-1c-0.2-0.2-0.1-0.3,0-0.4c0.9-0.9,2-1.6,3.1-2.2
			c0.2-0.1,0.2,0,0.3,0.1c2.2,2.2,5,3,8.1,2.5c1.8-0.3,3.3-1.2,4.7-2.4c0.2-0.2,0.3-0.2,0.5-0.1c1.8,0.9,3.2,2.1,4.2,3.8
			c1.1,1.7,1.6,3.6,1.6,5.6c0,1,0,1.9,0,2.9c0,1.6-1.3,2.5-2.8,1.9c-1.9-0.7-3.8-1.2-5.8-1.5c-2.4-0.3-4.8-0.4-7.2-0.1
			c-1.2,0.1-2.3,0.3-3.5,0.6c-0.1,0-0.2,0.1-0.4,0c-1.4-0.9-2.7-1.7-3.7-3c-1.2-1.5-1.2-3.3-1-5c0-0.3,0.2-0.2,0.4-0.2
			c1.1,0,2.2,0,3.3,0C20.9,31.3,21,31.4,21.1,31.2z"/>
		<path class="st0" d="M28.6,27.1c-4,0-7.2-3.4-7.2-7.3c0-4,3.4-7.2,7.3-7.2c4,0,7.4,3.4,7.2,7.6C35.8,24,32.7,27.1,28.6,27.1z"/>
		<path class="st0" d="M17.9,20.1c-3.6-0.1-6-3.6-5-7c0.7-2.4,3.2-4.2,5.7-3.9c2.4,0.3,4,1.5,4.8,3.8c0.1,0.3,0.1,0.4-0.2,0.6
			c-1.7,1.5-2.6,3.4-2.7,5.6c0,0.3-0.1,0.4-0.4,0.5C19.4,20,18.7,20.2,17.9,20.1z"/>
		<path class="st0" d="M8.8,29.2c-0.1-0.1-0.1-0.2-0.1-0.3c0-1.3-0.1-2.5,0.1-3.8c0.5-2.5,1.9-4.3,4.2-5.5c0.2-0.1,0.3,0,0.5,0.1
			c1.9,1.8,4.2,2.3,6.7,1.6c0.3-0.1,0.4,0,0.5,0.3c0.3,1.1,0.7,2.2,1.5,3.2c0.2,0.3,0.2,0.5-0.1,0.6c-1.4,0.5-2.6,1.4-3.6,2.4
			c-0.2,0.2-0.3,0.2-0.5,0c-0.8-0.9-1.7-1.8-2.5-2.7c-0.3-0.4-0.7-0.7-1-1.1c-0.2-0.2-0.3-0.2-0.6,0c-1.5,1.6-3,3.3-4.6,4.9
			C9,28.9,8.9,29.1,8.8,29.2z"/>
	</g>
	<path class="st1" d="M9.3,30L14,25c0,0,0.1,0,0.2,0l4.6,5c0.1,0.1,0,0.2-0.1,0.2h-2.5c-0.1,0-0.1,0-0.1,0.1
		c-0.1,0.9-0.8,7.5,4.9,9.9c0.1,0.1,0.1,0.2-0.1,0.2c-2.4-0.3-9.1-1.8-9-10.1c0-0.1,0-0.1-0.1-0.1l-2.4,0C9.3,30.2,9.3,30.1,9.3,30z
		"/>
</g>
</svg>
