<?xml version="1.0" encoding="utf-8"?>
<!-- Generator: Adobe Illustrator 23.0.1, SVG Export Plug-In . SVG Version: 6.00 Build 0)  -->
<svg version="1.1" id="Layer_1" xmlns="http://www.w3.org/2000/svg" xmlns:xlink="http://www.w3.org/1999/xlink" x="0px" y="0px"
	 viewBox="0 0 50 50" style="enable-background:new 0 0 50 50;" xml:space="preserve">
<style type="text/css">
	.st0{fill:#313591;}
	.st1{fill:#EC2027;}
</style>
<g>
	<path class="st0" d="M25,0.3C11.4,0.3,0.3,11.4,0.3,25c0,13.6,11.1,24.7,24.7,24.7S49.7,38.6,49.7,25C49.7,11.4,38.6,0.3,25,0.3z
		 M25,48.9C11.8,48.9,1.1,38.2,1.1,25C1.1,11.8,11.8,1.1,25,1.1S48.9,11.8,48.9,25C48.9,38.2,38.2,48.9,25,48.9z"/>
</g>
<path class="st0" d="M30.5,41c0.4,0.4,1,0.7,1.6,0.7c0.6,0,1.2-0.1,1.7-0.4c0.1-0.1,0.3-0.2,0.4-0.3l0,0l7.1-7.1c1-1,1-2.7,0-3.7
	c-1-1-2.7-1-3.7,0L35,32.9V10.8c0-1.4-1.2-2.6-2.6-2.6c-1.4,0-2.6,1.2-2.6,2.6v22.1L27,30.2c-1-1-2.7-1-3.7,0c-1,1-1,2.7,0,3.7
	L30.5,41C30.5,41,30.5,41,30.5,41z"/>
<path class="st1" d="M10.5,20.6c0.7,0,1.3-0.3,1.8-0.8l2.7-2.7v22.1c0,1.4,1.2,2.6,2.6,2.6s2.6-1.2,2.6-2.6V17.1l2.7,2.7
	c0.5,0.5,1.2,0.8,1.8,0.8c0.7,0,1.3-0.3,1.8-0.8c1-1,1-2.7,0-3.7c-0.2-0.2-0.4-0.4-0.6-0.6c-0.5-0.5-0.9-0.9-1.4-1.4
	c-0.6-0.6-1.2-1.2-1.8-1.8c-0.6-0.6-1.2-1.2-1.8-1.8C20.6,10,20,9.5,19.4,8.9c-0.6-0.6-1.4-0.8-2.3-0.6c-0.2,0-0.4,0.1-0.6,0.2
	c-0.6,0.3-1,0.9-1.5,1.3c-0.6,0.6-1.1,1.1-1.7,1.7c-0.7,0.7-1.4,1.4-2,2c-0.6,0.6-1.1,1.2-1.7,1.7c-0.3,0.3-0.6,0.6-0.8,0.8
	c0,0,0,0,0,0c-1,1-1,2.7,0,3.7C9.2,20.3,9.9,20.6,10.5,20.6z"/>
</svg>
