<?xml version="1.0" encoding="utf-8"?>
<!-- Generator: Adobe Illustrator 23.0.1, SVG Export Plug-In . SVG Version: 6.00 Build 0)  -->
<svg version="1.1" id="Layer_1" xmlns="http://www.w3.org/2000/svg" xmlns:xlink="http://www.w3.org/1999/xlink" x="0px" y="0px"
	 viewBox="0 0 50 50" style="enable-background:new 0 0 50 50;" xml:space="preserve">
<style type="text/css">
	.st0{fill:#313591;}
	.st1{fill-rule:evenodd;clip-rule:evenodd;fill:#313591;}
	.st2{fill-rule:evenodd;clip-rule:evenodd;fill:#EC2027;}
</style>
<g>
	<path class="st0" d="M25,49.7C11.4,49.7,0.3,38.6,0.3,25S11.4,0.3,25,0.3S49.7,11.4,49.7,25S38.6,49.7,25,49.7z M25,1.1
		C11.8,1.1,1.1,11.8,1.1,25c0,13.2,10.7,23.9,23.9,23.9c13.2,0,23.9-10.7,23.9-23.9C48.9,11.8,38.2,1.1,25,1.1z"/>
</g>
<g>
	<path class="st1" d="M35.7,34.5c-3,0-5.8-1.4-7.6-3.7L22.4,25l5.8-5.7c3.1-4.2,9.1-5,13.3-1.9c4.2,3.1,5,9.1,1.9,13.3
		C41.5,33.1,38.7,34.5,35.7,34.5z M35.6,19.3c-1.8,0-3.5,0.8-4.6,2.2L27.5,25l3.5,3.4c1.1,1.4,2.8,2.3,4.6,2.2
		c3.1,0,5.7-2.5,5.7-5.7C41.3,21.9,38.8,19.3,35.6,19.3C35.6,19.3,35.6,19.3,35.6,19.3z"/>
	<path class="st2" d="M21.8,30.7c-3.2,4.2-9.1,5-13.3,1.8s-5-9.1-1.8-13.3s9.1-5,13.3-1.8c0.7,0.5,1.3,1.1,1.8,1.8l5.8,5.7
		L21.8,30.7z M18.9,21.6c-1.1-1.4-2.8-2.3-4.6-2.2c-3.1,0-5.7,2.5-5.7,5.7s2.5,5.7,5.7,5.7c1.8,0,3.5-0.8,4.6-2.2l3.5-3.4L18.9,21.6
		z"/>
</g>
</svg>
